HIERARCHY
ROOT Hips
{
	OFFSET 0.000000 0.000000 0.000000
	CHANNELS 6 Xposition Yposition Zposition Xrotation Yrotation Zrotation
	JOINT LeftUpLeg_virtual
	{
		OFFSET 0.000000 0.000000 0.000000
		CHANNELS 3 Xrotation Yrotation Zrotation
		JOINT LeftUpLeg
		{
			OFFSET 15.427100 -6.655098 0.678600
			CHANNELS 3 Xrotation Yrotation Zrotation
			JOINT LeftLeg
			{
				OFFSET 4.081073 -39.591068 13.024000
				CHANNELS 3 Xrotation Yrotation Zrotation
				JOINT LeftFoot
				{
					OFFSET -4.081074 -37.707932 -15.979700
					CHANNELS 3 Xrotation Yrotation Zrotation
					JOINT LeftToeBase
					{
						OFFSET 5.346399 -15.068900 20.645000
						CHANNELS 3 Xrotation Yrotation Zrotation
						JOINT LeftToe_End
						{
							OFFSET 2.754700 0.931300 11.300900
							CHANNELS 3 Xrotation Yrotation Zrotation
							End Site
							{
								OFFSET 0 0 0
							}
						}
					}
				}
			}
		}
	}
	JOINT RightUpLeg_virtual
	{
		OFFSET 0.000000 0.000000 0.000000
		CHANNELS 3 Xrotation Yrotation Zrotation
		JOINT RightUpLeg
		{
			OFFSET -15.569500 -6.655098 0.678600
			CHANNELS 3 Xrotation Yrotation Zrotation
			JOINT RightLeg
			{
				OFFSET -4.081825 -39.591045 13.023800
				CHANNELS 3 Xrotation Yrotation Zrotation
				JOINT RightFoot
				{
					OFFSET 4.081824 -37.707954 -15.979600
					CHANNELS 3 Xrotation Yrotation Zrotation
					JOINT RightToeBase
					{
						OFFSET -5.346400 -15.068900 20.645000
						CHANNELS 3 Xrotation Yrotation Zrotation
						JOINT RightToe_End
						{
							OFFSET -2.754700 0.931300 11.300900
							CHANNELS 3 Xrotation Yrotation Zrotation
							End Site
							{
								OFFSET 0 0 0
							}
						}
					}
				}
			}
		}
	}
	JOINT Spine_virtual
	{
		OFFSET 0.000000 0.000000 0.000000
		CHANNELS 3 Xrotation Yrotation Zrotation
		JOINT Spine
		{
			OFFSET -0.279200 12.230698 -2.892100
			CHANNELS 3 Xrotation Yrotation Zrotation
			JOINT Spine1
			{
				OFFSET -0.232667 10.192268 -1.242267
				CHANNELS 3 Xrotation Yrotation Zrotation
				JOINT Spine1_split
				{
					OFFSET -0.232667 10.192268 -1.242267
					CHANNELS 3 Xrotation Yrotation Zrotation
					JOINT Spine2
					{
						OFFSET -0.232667 10.192268 -1.242267
						CHANNELS 3 Xrotation Yrotation Zrotation
						JOINT Neck_virtual
						{
							OFFSET 0.000000 0.000000 0.000000
							CHANNELS 3 Xrotation Yrotation Zrotation
							JOINT Neck
							{
								OFFSET -0.418800 17.814194 8.416900
								CHANNELS 3 Xrotation Yrotation Zrotation
								JOINT Head
								{
									OFFSET 0.000000 7.031097 3.806800
									CHANNELS 3 Xrotation Yrotation Zrotation
									JOINT HeadTop_End
									{
										OFFSET 0.000000 24.646606 12.978600
										CHANNELS 3 Xrotation Yrotation Zrotation
										End Site
										{
											OFFSET 0 0 0
										}
									}
								}
							}
						}
						JOINT LeftShoulder_virtual
						{
							OFFSET 0.000000 0.000000 0.000000
							CHANNELS 3 Xrotation Yrotation Zrotation
							JOINT LeftShoulder
							{
								OFFSET 8.476499 7.247704 -3.868750
								CHANNELS 3 Xrotation Yrotation Zrotation
								JOINT LeftShoulder_split
								{
									OFFSET 8.476499 7.247704 -3.868750
									CHANNELS 3 Xrotation Yrotation Zrotation
									JOINT LeftArm
									{
										OFFSET 9.308998 -2.777710 0.208600
										CHANNELS 3 Xrotation Yrotation Zrotation
										JOINT LeftForeArm
										{
											OFFSET 29.972298 0.000000 0.000000
											CHANNELS 3 Xrotation Yrotation Zrotation
											JOINT LeftHand
											{
												OFFSET 26.026505 0.000000 0.000000
												CHANNELS 3 Xrotation Yrotation Zrotation
												End Site
												{
													OFFSET 0 0 0
												}
											}
										}
									}
								}
							}
						}
						JOINT RightShoulder_virtual
						{
							OFFSET 0.000000 0.000000 0.000000
							CHANNELS 3 Xrotation Yrotation Zrotation
							JOINT RightShoulder
							{
								OFFSET -7.570500 7.247704 -3.868750
								CHANNELS 3 Xrotation Yrotation Zrotation
								JOINT RightShoulder_split
								{
									OFFSET -7.570500 7.247704 -3.868750
									CHANNELS 3 Xrotation Yrotation Zrotation
									JOINT RightArm
									{
										OFFSET -9.308998 -2.777710 0.208500
										CHANNELS 3 Xrotation Yrotation Zrotation
										JOINT RightForeArm
										{
											OFFSET -29.972300 0.000000 0.000000
											CHANNELS 3 Xrotation Yrotation Zrotation
											JOINT RightHand
											{
												OFFSET -26.026505 0.000000 0.000000
												CHANNELS 3 Xrotation Yrotation Zrotation
												End Site
												{
													OFFSET 0 0 0
												}
											}
										}
									}
								}
							}
						}
					}
				}
			}
		}
	}
}
MOTION
Frames: 5
Frame Time: 0.03333333
0.564112 49.295158 16.302017 0.000000 0.000000 0.000000 0.145629 0.084796 0.843816 -86.311441 -11.434172 18.501570 79.645497 -0.700427 -3.144361 9.215889 -6.270066 -9.761688 -0.103119 0.000003 0.000000 0.000000 0.000000 0.000000 0.145629 0.084796 0.843816 -88.057811 12.723464 -14.133418 80.264715 0.661245 1.242764 10.522898 -0.516148 10.738026 -0.191627 -0.000002 -0.000000 0.000000 0.000000 0.000000 0.145629 0.084796 0.843816 10.430289 0.113213 -1.466801 -0.199256 0.213327 -0.355463 0.000000 0.000000 0.000000 0.000000 0.000000 0.000000 -0.199585 0.248526 -0.300880 -1.001766 -1.284342 0.469464 -8.883498 -4.327063 -5.321560 0.000000 0.000000 0.000000 -0.199585 0.248526 -0.300880 0.823520 -15.262027 -7.868749 0.000000 0.000000 0.000000 4.746716 -21.216436 -54.862228 0.000001 -62.197492 0.000001 0.000000 0.000000 0.000000 -0.199585 0.248526 -0.300880 3.171093 -4.378723 8.782885 0.000000 0.000000 0.000000 -3.950239 37.253382 63.733643 -0.000024 55.137932 0.000024 0.000000 0.000000 0.000000 
0.534161 49.367172 16.145357 0.000000 0.000000 0.000000 -0.955892 0.064102 1.026137 -85.051332 -11.098129 18.527984 79.468828 -0.716412 -3.126305 9.203636 -6.268377 -9.685066 -0.103119 0.000002 0.000000 0.000000 0.000000 0.000000 -0.955892 0.064102 1.026137 -87.001905 12.573028 -14.262423 80.188484 0.802176 1.198170 10.564307 -0.515255 10.469228 -0.191627 -0.000003 -0.000000 0.000000 0.000000 0.000000 -0.955892 0.064102 1.026137 10.001980 0.050715 -1.453988 0.733886 0.214279 -0.373962 0.000000 0.000000 0.000000 0.000000 0.000000 0.000000 0.733709 0.243699 -0.324692 -0.761074 -1.231934 0.475966 -10.032740 -4.165828 -4.919811 0.000000 0.000000 0.000000 0.733709 0.243699 -0.324692 0.826521 -15.600728 -7.588857 0.000000 0.000000 0.000000 4.308929 -21.403938 -54.419778 0.000040 -61.023772 0.000034 0.000000 0.000000 0.000000 0.733709 0.243699 -0.324692 3.082112 -3.976041 9.440668 0.000000 0.000000 0.000000 -3.601771 37.650762 61.027406 -0.000037 54.399021 0.000052 0.000000 0.000000 0.000000 
0.516763 49.466507 15.982010 0.000000 0.000000 0.000000 -1.987204 0.063750 1.199057 -83.854075 -10.739029 18.508792 79.246819 -0.710502 -3.101484 9.216906 -6.271139 -9.572585 -0.103119 0.000002 0.000000 0.000000 0.000000 0.000000 -1.987204 0.063750 1.199057 -85.956729 12.433565 -14.411161 80.066619 0.920137 1.152132 10.605699 -0.511960 10.232862 -0.191627 -0.000003 -0.000000 0.000000 0.000000 0.000000 -1.987204 0.063750 1.199057 9.597200 0.000349 -1.434490 1.797858 0.233732 -0.404630 0.000000 0.000000 0.000000 0.000000 0.000000 0.000000 1.797880 0.257127 -0.359928 -0.626300 -1.186259 0.506581 -11.780737 -4.001938 -4.557547 0.000000 0.000000 0.000000 1.797880 0.257127 -0.359928 0.840294 -16.448561 -7.432477 0.000000 0.000000 0.000000 4.228461 -20.759382 -53.522950 0.000028 -62.090299 0.000038 0.000000 0.000000 0.000000 1.797880 0.257127 -0.359928 2.961169 -3.453757 10.001605 0.000000 0.000000 0.000000 -3.229671 37.555324 57.967016 0.000037 54.696623 -0.000042 0.000000 0.000000 0.000000 
0.512305 49.564644 15.816135 0.000000 0.000000 0.000000 -2.888427 0.061794 1.368265 -82.788108 -10.397231 18.465237 79.020501 -0.689641 -3.083939 9.238966 -6.264726 -9.479484 -0.103119 0.000002 0.000000 0.000000 0.000000 0.000000 -2.888427 0.061794 1.368265 -85.030172 12.324566 -14.565554 79.925467 1.041149 1.108955 10.664027 -0.511591 10.040667 -0.191627 -0.000002 -0.000000 0.000000 0.000000 0.000000 -2.888427 0.061794 1.368265 9.216036 -0.046505 -1.410903 2.995974 0.259837 -0.454100 0.000000 0.000000 0.000000 0.000000 0.000000 0.000000 2.996210 0.276800 -0.413456 -0.571550 -1.148196 0.529047 -14.311722 -3.871689 -4.257154 0.000000 0.000000 0.000000 2.996210 0.276800 -0.413456 0.854422 -17.480235 -7.466766 0.000000 0.000000 0.000000 4.195345 -19.562948 -51.961269 -0.000028 -66.074765 -0.000035 0.000000 0.000000 0.000000 2.996210 0.276800 -0.413456 2.799018 -2.674955 10.502302 0.000000 0.000000 0.000000 -3.038585 36.466455 54.263763 0.000011 57.539686 -0.000010 0.000000 0.000000 0.000000 
0.507771 49.617363 15.685165 0.000000 0.000000 0.000000 -3.595408 0.035466 1.534642 -81.953883 -10.134648 18.431505 78.863980 -0.661949 -3.078198 9.249545 -6.255205 -9.437791 -0.103119 0.000002 0.000000 0.000000 0.000000 0.000000 -3.595408 0.035466 1.534642 -84.367255 12.256989 -14.685223 79.838354 1.163355 1.072349 10.739427 -0.508829 9.865693 -0.191627 -0.000002 -0.000000 0.000000 0.000000 0.000000 -3.595408 0.035466 1.534642 8.843518 -0.100983 -1.387890 4.275565 0.275761 -0.525326 0.000000 0.000000 0.000000 0.000000 0.000000 0.000000 4.275954 0.285879 -0.488379 -0.503868 -1.114258 0.509790 -17.579536 -3.784710 -4.023390 0.000000 0.000000 0.000000 4.275954 0.285879 -0.488379 0.862137 -18.289017 -7.587574 0.000000 0.000000 0.000000 3.632272 -18.468480 -49.500761 0.000038 -73.013261 0.000042 0.000000 0.000000 0.000000 4.275954 0.285879 -0.488379 2.589589 -1.496130 11.020420 0.000000 0.000000 0.000000 -3.281682 34.308665 49.692112 -0.000011 64.121748 0.000008 0.000000 0.000000 0.000000 
